<svg xmlns="http://www.w3.org/2000/svg">

    <symbol id="loupe" viewBox="0 0 24 24">
        <path fill-rule="evenodd" clip-rule="evenodd" d="M15 10C15 12.7614 12.7614 15 10 15C7.23858 15 5 12.7614 5 10C5 7.23858 7.23858 5 10 5C12.7614 5 15 7.23858 15 10ZM14.7383 15.1525C13.4917 16.2996 11.8276 17 10 17C6.13401 17 3 13.866 3 10C3 6.13401 6.13401 3 10 3C13.866 3 17 6.13401 17 10C17 11.314 16.638 12.5434 16.0082 13.594L19.7071 17.2929C20.0976 17.6834 20.0976 18.3166 19.7071 18.7071C19.3166 19.0976 18.6834 19.0976 18.2929 18.7071L14.7383 15.1525Z"/>
    </symbol>

    <symbol id="close" viewBox="0 0 16 16">        
        <path d="M10 10L6 6" stroke="currentColor" fill="none" stroke-width="1.5" stroke-linecap="round"/>
        <path d="M10 6L6 10" stroke="currentColor" fill="none" stroke-width="1.5" stroke-linecap="round"/>
    </symbol>

    <symbol id="cross" viewBox="0 0 8 8">        
        <path d="M7 7L1 1" stroke="currentColor" stroke-linecap="round"/>
        <path d="M1 7L7 1" stroke="currentColor" stroke-linecap="round"/>
    </symbol>

    <symbol id="arrow-down" viewBox="0 0 16 16">        
        <path d="M5 7L8 10L11 7" stroke="currentColor" fill="none" stroke-width="1.5" stroke-linecap="round" stroke-linejoin="round"/>
    </symbol>

    <symbol id="notification" viewBox="0 0 16 16">        
        <path d="M14.6195 13.4953L13.4749 11.5873C12.9462 10.7067 12.6669 9.698 12.6669 8.67134V7C12.6669 4.89 11.2589 3.10534 9.33351 2.53V1.33334C9.33351 0.598 8.73551 0 8.00017 0C7.26482 0 6.66682 0.598 6.66682 1.33334V2.53C4.74151 3.10534 3.33351 4.89 3.33351 7V8.67134C3.33351 9.698 3.05417 10.706 2.52617 11.5867L1.38151 13.4947C1.31951 13.598 1.31817 13.726 1.37751 13.8307C1.43685 13.9353 1.54685 14 1.66685 14H14.3335C14.4535 14 14.5642 13.9354 14.6235 13.8314C14.6829 13.7273 14.6809 13.598 14.6195 13.4953Z"/>
        <path d="M5.90039 14.6665C6.27639 15.4518 7.07239 15.9998 7.9997 15.9998C8.92702 15.9998 9.72305 15.4518 10.099 14.6665H5.90039Z"/>
    </symbol>

    <symbol id="exit" viewBox="0 0 18 16">        
        <path d="M7.5 11.5L7.5 12.5C7.5 13.0523 7.05228 13.5 6.5 13.5L3.5 13.5C2.94771 13.5 2.5 13.0523 2.5 12.5L2.5 3.5C2.5 2.94772 2.94771 2.5 3.5 2.5L6.5 2.5C7.05228 2.5 7.5 2.94772 7.5 3.5L7.5 4.5" stroke-width="2" stroke-linecap="round" fill="none"/>
        <path d="M7.50019 7.9287L14.7002 7.93052M14.7002 7.93052L11.9002 10.3584M14.7002 7.93052L11.9002 5.50124" stroke-width="2" stroke-linecap="round"/>
    </symbol>

    <symbol id="doc" viewBox="0 0 17 18">        
        <rect x="1" y="1.5" width="15" height="15" rx="1" fill="none" stroke-width="2"/>
        <path d="M4 5.5H13M4 9H7.27273M4 12.6579H12.1818" fill="none" stroke-width="2" stroke-linecap="round"/>
    </symbol>

    <symbol id="plus" viewBox="0 0 12 14">        
        <path fill-rule="evenodd" clip-rule="evenodd" d="M7 3C7 2.44772 6.55228 2 6 2C5.44772 2 5 2.44772 5 3V7H1C0.447715 7 0 7.44772 0 8C0 8.55228 0.447715 9 1 9H5V13C5 13.5523 5.44772 14 6 14C6.55228 14 7 13.5523 7 13V9H11C11.5523 9 12 8.55228 12 8C12 7.44772 11.5523 7 11 7H7V3Z"/>
    </symbol>

    <symbol id="export" viewBox="0 0 17 16">        
        <path d="M3 11V13C3 13.5523 3.44772 14 4 14H13C13.5523 14 14 13.5523 14 13V11" fill="none" stroke-width="2" stroke-linecap="round"/>
        <path d="M8.49998 9.6V2.4M8.49998 2.4L10.9286 5.2M8.49998 2.4L6.07141 5.2" fill="none" stroke-width="2" stroke-linecap="round"/>
    </symbol>

    <symbol id="calendar" viewBox="0 0 24 24">
        <path d="M20 18H5L5 9V6.2C5 6.08954 5.08954 6 5.2 6H12.5L19.8 6C19.9105 6 20 6.08954 20 6.2V18Z" fill="#F8F7F7"/>
        <path d="M19.8 18H5.2C5.08954 18 5 17.9105 5 17.8L5 13V6.2C5 6.08954 5.08954 6 5.2 6H12.5L19.8 6C19.9105 6 20 6.08954 20 6.2V17.8C20 17.9105 19.9105 18 19.8 18Z" stroke="currentColor" fill="none" stroke-width="1.5" stroke-linecap="round"/>
        <path d="M8 4V6" stroke="currentColor" stroke-width="1.5" stroke-linecap="round" stroke-linejoin="round"/>
        <path d="M17 4V6" stroke="currentColor" stroke-width="1.5" stroke-linecap="round" stroke-linejoin="round"/>
        <rect x="5.5" y="6.5" width="14" height="1" fill="currentColor" stroke="currentColor"/>
        <path d="M8.29999 11.1H8.79999" stroke="currentColor" stroke-width="1.5" stroke-linecap="round" stroke-linejoin="round"/>
        <path d="M8.29999 14.1H8.79999" stroke="currentColor" stroke-width="1.5" stroke-linecap="round" stroke-linejoin="round"/>
        <path d="M12.3 11.1H12.8" stroke="currentColor" stroke-width="1.5" stroke-linecap="round" stroke-linejoin="round"/>
        <path d="M12.3 14.1H12.8" stroke="currentColor" stroke-width="1.5" stroke-linecap="round" stroke-linejoin="round"/>
        <path d="M16.3 11.1H16.8" stroke="currentColor" stroke-width="1.5" stroke-linecap="round" stroke-linejoin="round"/>
        <path d="M16.3 14.1H16.8" stroke="currentColor" stroke-width="1.5" stroke-linecap="round" stroke-linejoin="round"/>
    </symbol>

    <symbol id="eye-cross" viewBox="0 0 25 25">        
        <path d="M7.34668 5.98364L17.6532 19.0164" fill="none" stroke-width="1.5" stroke-linecap="round"/>
        <path d="M20.0026 11.6587C20.3867 12.1612 20.3867 12.8396 20.0026 13.3413C18.7925 14.9209 15.8894 18.1734 12.5 18.1734C9.11054 18.1734 6.2074 14.9209 4.99736 13.3413C4.81045 13.1007 4.70898 12.8047 4.70898 12.5C4.70898 12.1953 4.81045 11.8993 4.99736 11.6587C6.2074 10.0791 9.11054 6.82666 12.5 6.82666C15.8894 6.82666 18.7925 10.0791 20.0026 11.6587V11.6587Z" fill="none" stroke-width="1.5" stroke-linecap="round" stroke-linejoin="round"/>
        <path d="M12.4998 14.9315C13.8426 14.9315 14.9312 13.8429 14.9312 12.5C14.9312 11.1572 13.8426 10.0686 12.4998 10.0686C11.157 10.0686 10.0684 11.1572 10.0684 12.5C10.0684 13.8429 11.157 14.9315 12.4998 14.9315Z" fill="none" stroke-width="1.5" stroke-linecap="round" stroke-linejoin="round"/>
    </symbol>

    <symbol id="check" viewBox="0 0 21 20">        
        <path d="M4.66675 10.8333L8.00008 14.1667L16.3334 5.83333" fill="none" stroke-width="2" stroke-linecap="round" stroke-linejoin="round"/>
    </symbol>

    <symbol id="question" viewBox="0 0 13 13">        
        <circle cx="6.5" cy="6.5" r="6" fill="currentColor" stroke="white"/>
        <path d="M5.93633 7.07094C5.8296 7.32562 6.06443 7.55857 6.34057 7.55857H6.54484C6.82098 7.55857 7.03847 7.3178 7.19277 7.08879C7.59284 6.49499 8.66634 6.20875 8.66634 5.11297C8.66634 4.16283 7.84137 3.46655 6.44745 3.46655C5.56707 3.46655 5.12096 3.74127 4.73211 4.13991C4.51327 4.36426 4.58546 4.73532 4.85822 4.88968L4.88662 4.90575C5.09826 5.02552 5.35737 4.96882 5.51864 4.78681C5.72564 4.55321 5.95151 4.39859 6.44745 4.39859C7.1776 4.39859 7.42414 4.81554 7.42414 5.27822C7.42414 5.9808 6.27902 6.25322 5.93633 7.07094ZM6.44745 9.53322C6.88364 9.53322 7.19656 9.24404 7.19656 8.88877C7.19656 8.5335 6.88364 8.25259 6.44745 8.25259C6.00177 8.25259 5.68885 8.5335 5.68885 8.88877C5.68885 9.24404 6.00177 9.53322 6.44745 9.53322Z" fill="white"/>
    </symbol>

    <symbol id="arrow-fill" viewBox="0 0 8 4">        
        <path d="M4.49497 3.50503C4.22161 3.77839 3.77839 3.77839 3.50502 3.50503L1.19497 1.19497C0.753998 0.753998 1.06632 2.69104e-08 1.68995 4.26489e-08L6.31005 1.59245e-07C6.93368 1.74984e-07 7.246 0.753999 6.80503 1.19497L4.49497 3.50503Z"/>
    </symbol>

    <symbol id="info" viewBox="0 0 22 24">        
        <rect x="10" y="9" width="2" height="8" rx="1"/>
        <circle cx="11" cy="7" r="1"/>
    </symbol>

    <symbol id="pencil" viewBox="0 0 22 24">        
        <path d="M16.2816 8.43799L7.2293 16.1919C7.1891 16.2263 7.1405 16.2495 7.08844 16.2591L5.73954 16.5073C5.36217 16.5767 5.05045 16.2128 5.17703 15.8506L5.62952 14.5558C5.64698 14.5059 5.67736 14.4614 5.71756 14.427L14.7699 6.67309L16.2816 8.43799Z"/>
        <path d="M17.9095 5.72685C18.2688 6.1463 18.22 6.77758 17.8006 7.13687L17.0411 7.7874L15.5294 6.02251L16.2888 5.37197C16.7083 5.01269 17.3396 5.06146 17.6989 5.48091L17.9095 5.72685Z"/>
    </symbol>

    <symbol id="basket" viewBox="0 0 24 25">        
        <path d="M7.7207 9.12695V15.8065C7.7207 16.3588 8.16842 16.8065 8.7207 16.8065H15.2793C15.8316 16.8065 16.2793 16.3588 16.2793 15.8065V9.12695" fill="none" stroke-width="1.5" stroke-linecap="round"/>
        <path d="M6.40405 7.3877H9.20205H12H14.798H17.596" fill="none" stroke-width="1.5" stroke-linecap="round"/>
        <path d="M14.6336 5.4126H9.3668C8.8214 5.4126 8.37927 5.85473 8.37927 6.40013C8.37927 6.94552 8.8214 7.38765 9.3668 7.38765H14.6336C15.179 7.38765 15.6211 6.94552 15.6211 6.40013C15.6211 5.85473 15.179 5.4126 14.6336 5.4126Z" fill="#99DCCD" stroke-linecap="round"/>
        <path d="M10.3661 9.73438V15.0881M13.7305 9.73438V15.0881" fill="none" stroke-width="1.5" stroke-linecap="round"/>
    </symbol>

    <symbol id="export" viewBox="0 0 17 16">        
        <path d="M3 11V13C3 13.5523 3.44772 14 4 14H13C13.5523 14 14 13.5523 14 13V11" fill="none" stroke-width="2" stroke-linecap="round"/>
        <path d="M8.49986 9.6V2.4M8.49986 2.4L10.9284 5.2M8.49986 2.4L6.07129 5.2" fill="none" stroke-width="2" stroke-linecap="round"/>
    </symbol>

    <symbol id="ruble" viewBox="0 0 11 13">        
        <path d="M6.34401 8.37199C9.22401 8.37199 11 7.05999 11 4.62799C11 2.21199 9.22401 0.899994 6.34401 0.899994H1.94401V9.31599H0.312012V10.228H1.94401V12.1H3.56001V10.228H7.11201V9.31599H3.56001V8.37199H6.34401ZM9.38401 4.64399C9.38401 6.16399 8.29601 7.04399 6.34401 7.04399H3.56001V2.29199H6.34401C8.29601 2.29199 9.38401 3.12399 9.38401 4.64399Z"/>
    </symbol>

    <symbol id="minus" viewBox="0 0 12 2">        
        <path fill-rule="evenodd" clip-rule="evenodd" d="M0 1C0 0.447715 0.447715 0 1 0H6H11C11.5523 0 12 0.447715 12 1C12 1.55228 11.5523 2 11 2H6H1C0.447715 2 0 1.55228 0 1Z"/>
    </symbol>

    <symbol id="update" viewBox="0 0 17 18">        
        <path d="M16 10.6576C15.6052 12.3783 14.6087 13.9065 13.1859 14.9734C11.7631 16.0403 10.005 16.5776 8.22067 16.4909C6.43638 16.4042 4.74016 15.699 3.43027 14.4993C2.12038 13.2996 1.28067 11.6822 1.05881 9.93145C0.836941 8.18074 1.24712 6.40883 2.21722 4.92727C3.18732 3.44571 4.65522 2.34936 6.36283 1.83099C8.07045 1.31263 9.90843 1.40543 11.5536 2.09309C13.1988 2.78075 14.5458 4.01924 15.3579 5.59079M15.3579 5.59079L11.5536 4.92727M15.3579 5.59079L16 2.38235" fill="none" stroke-width="2" stroke-linecap="round"/>
    </symbol>

    <symbol id="import" viewBox="0 0 17 17">        
        <path d="M3 11.431V13.431C3 13.9833 3.44772 14.431 4 14.431H13C13.5523 14.431 14 13.9833 14 13.431V11.431" fill="none" stroke-width="2" stroke-linecap="round"/>
        <path d="M8.53923 2.0312L8.46122 9.23079M8.46122 9.23079L6.06312 6.40525M8.46122 9.23079L10.92 6.45665" fill="none" stroke-width="2" stroke-linecap="round"/>
    </symbol>

    <symbol id="attention" viewBox="0 0 21 22">        
        <path d="M6.76619 16.0664H15.2338C16.0111 16.0664 16.4912 15.2184 16.0913 14.5519L11.8575 7.49556C11.4691 6.84822 10.5309 6.84822 10.1425 7.49556L5.9087 14.5519C5.50878 15.2184 5.9889 16.0664 6.76619 16.0664Z" fill="none" stroke-width="1.5" stroke-linecap="round" stroke-linejoin="round"/>
        <path d="M11 14.0664V13.5664" fill="none" stroke-width="1.5" stroke-linecap="round" stroke-linejoin="round"/>
        <path d="M11 11.5664V10.0664" fill="none" stroke-width="1.5" stroke-linecap="round" stroke-linejoin="round"/>
    </symbol>

</svg>
