<svg width="18" height="18" viewBox="0 0 18 18" fill="none" xmlns="http://www.w3.org/2000/svg">
<path fill-rule="evenodd" clip-rule="evenodd" d="M0.225098 9.0001C0.225098 4.1538 4.1538 0.225098 9.0001 0.225098C13.8464 0.225098 17.7751 4.1538 17.7751 9.0001C17.7751 13.8464 13.8464 17.7751 9.0001 17.7751C4.1538 17.7751 0.225098 13.8464 0.225098 9.0001ZM11.6857 12.6403L9.00011 9.95471L6.31454 12.6403C6.19738 12.7574 6.00743 12.7574 5.89028 12.6403L5.35995 12.1099C5.24279 11.9928 5.24279 11.8028 5.35995 11.6857L8.04552 9.00011L5.35995 6.31454C5.24279 6.19738 5.24279 6.00743 5.35995 5.89028L5.89028 5.35995C6.00743 5.24279 6.19738 5.24279 6.31454 5.35995L9.00011 8.04552L11.6857 5.35995C11.8028 5.24279 11.9928 5.24279 12.1099 5.35995L12.6403 5.89028C12.7574 6.00743 12.7574 6.19738 12.6403 6.31454L9.95471 9.00011L12.6403 11.6857C12.7574 11.8028 12.7574 11.9928 12.6403 12.1099L12.1099 12.6403C11.9928 12.7574 11.8028 12.7574 11.6857 12.6403Z" fill="#7E868C"/>
</svg>
