<svg width="130" height="34" viewBox="0 0 130 34" fill="none" xmlns="http://www.w3.org/2000/svg">
<path d="M1.926 23.21C2.97 23.21 3.852 22.328 3.852 21.284C3.852 20.24 2.97 19.358 1.926 19.358C0.882 19.358 0 20.24 0 21.284C0 22.328 0.882 23.21 1.926 23.21Z" fill="#00A783"/>
<path d="M11.3437 22.994V10.988H7.70766V22.994H11.3437Z" fill="#00A783"/>
<path d="M27.0859 22.994V10.988H23.4499V16.676L19.2739 10.988H15.5299V22.994H19.1659V16.91L23.5939 22.994H27.0859Z" fill="#00A783"/>
<path d="M37.2019 23.21C40.9099 23.21 43.7719 20.69 43.7719 17C43.7719 13.31 40.9099 10.79 37.2019 10.79C33.4939 10.79 30.6319 13.31 30.6319 17C30.6319 20.69 33.4939 23.21 37.2019 23.21ZM37.2019 20.006C35.4559 20.006 34.3219 18.674 34.3219 17C34.3219 15.326 35.4559 13.994 37.2019 13.994C38.9479 13.994 40.0819 15.326 40.0819 17C40.0819 18.674 38.9479 20.006 37.2019 20.006Z" fill="#00A783"/>
<path d="M58.518 22.994L56.34 18.746C57.294 18.278 58.5 17.18 58.5 15.11C58.5 12.86 56.988 10.988 54.18 10.988H47.772V22.994H51.408V19.214H52.722L54.378 22.994H58.518ZM53.622 16.046H51.408V14.156H53.622C54.234 14.156 54.81 14.444 54.81 15.092C54.81 15.758 54.234 16.046 53.622 16.046Z" fill="#3C3C3B"/>
<path d="M71.3292 22.994V19.826H65.8572V18.512H71.2032V15.344H65.8572V14.156H71.3292V10.988H62.2212V22.994H71.3292Z" fill="#3C3C3B"/>
<path d="M78.8298 22.994V19.214H81.6018C84.4098 19.214 85.9218 17.342 85.9218 15.11C85.9218 12.86 84.4098 10.988 81.6018 10.988H75.1938V22.994H78.8298ZM81.1338 16.046H78.8298V14.156H81.1338C81.7458 14.156 82.2318 14.462 82.2318 15.11C82.2318 15.74 81.7458 16.046 81.1338 16.046Z" fill="#3C3C3B"/>
<path d="M95.2838 23.21C98.9918 23.21 101.854 20.69 101.854 17C101.854 13.31 98.9918 10.79 95.2838 10.79C91.5758 10.79 88.7138 13.31 88.7138 17C88.7138 20.69 91.5758 23.21 95.2838 23.21ZM95.2838 20.006C93.5378 20.006 92.4038 18.674 92.4038 17C92.4038 15.326 93.5378 13.994 95.2838 13.994C97.0298 13.994 98.1638 15.326 98.1638 17C98.1638 18.674 97.0298 20.006 95.2838 20.006Z" fill="#3C3C3B"/>
<path d="M116.139 22.994L113.961 18.746C114.915 18.278 116.121 17.18 116.121 15.11C116.121 12.86 114.609 10.988 111.801 10.988H105.393V22.994H109.029V19.214H110.343L111.999 22.994H116.139ZM111.243 16.046H109.029V14.156H111.243C111.855 14.156 112.431 14.444 112.431 15.092C112.431 15.758 111.855 16.046 111.243 16.046Z" fill="#3C3C3B"/>
<path d="M125.877 22.994V14.156H129.081V10.988H119.019V14.156H122.241V22.994H125.877Z" fill="#3C3C3B"/>
</svg>
