<svg width="91" height="92" viewBox="0 0 91 92" fill="none" xmlns="http://www.w3.org/2000/svg">
<path d="M91 0.616699H0.229004V91.3833H91V0.616699Z" fill="#B3E5DA"/>
<circle cx="45.6146" cy="46" r="34.332" fill="#3C3C3B"/>
<path d="M79.9466 46C79.9466 52.7902 77.9331 59.4279 74.1606 65.0738C70.3882 70.7197 65.0262 75.1201 58.7529 77.7186C52.4795 80.3171 45.5765 80.997 38.9168 79.6723C32.257 78.3476 26.1396 75.0778 21.3382 70.2764C16.5368 65.4749 13.267 59.3576 11.9423 52.6978C10.6176 46.0381 11.2975 39.135 13.896 32.8617C16.4945 26.5883 20.8949 21.2264 26.5408 17.454C32.1866 13.6815 38.8244 11.668 45.6146 11.668V46H79.9466Z" fill="#00A783"/>
<path d="M11.2825 46C11.2825 50.5085 12.1706 54.9729 13.8959 59.1383C15.6212 63.3036 18.1501 67.0883 21.3381 70.2764C24.5262 73.4644 28.3109 75.9933 32.4762 77.7186C36.6416 79.4439 41.106 80.332 45.6145 80.332V46H11.2825Z" fill="#F2FBF9"/>
</svg>
