<svg width="1440" height="1024" viewBox="0 0 1440 1024" fill="none" xmlns="http://www.w3.org/2000/svg">
<rect width="1440" height="1024" fill="#00795F"/>
<g opacity="0.14">
<rect x="1440" y="1024" width="479.531" height="520.222" transform="rotate(-180 1440 1024)" fill="#00A783"/>
<rect x="960.469" y="509.521" width="479.309" height="509.521" transform="rotate(-180 960.469 509.521)" fill="#00A783"/>
<rect x="1440" y="509.758" width="479.531" height="509.758" transform="rotate(-180 1440 509.758)" fill="#3C3C3B"/>
<rect x="480.938" y="511.253" width="480.938" height="511.252" transform="rotate(-180 480.938 511.253)" fill="#B3E5DA"/>
<rect x="480.938" y="1024" width="480.938" height="512.747" transform="rotate(-180 480.938 1024)" fill="#3C3C3B"/>
<rect x="960.469" y="1022.51" width="479.531" height="509.757" transform="rotate(-180 960.469 1022.51)" fill="#F2FBF9"/>
<path d="M480.938 1024L960.469 1024C960.469 740.796 745.758 511.253 480.938 511.253L480.938 1024Z" fill="#B3E5DA"/>
<path d="M480.937 0.000366211L0 0.000366211C0 282.379 215.34 511.253 480.937 511.253L480.937 0.000366211Z" fill="#F2FBF9"/>
<path d="M1440 511.253L960.469 511.253C960.469 794.457 1175.18 1024 1440 1024V511.253Z" fill="#E6F7F3"/>
<path d="M480.937 511.253L480.938 1024C215.303 1024 1.09871e-05 794.417 -1.39045e-06 511.253L480.937 511.253Z" fill="#00A783"/>
<path d="M480.937 511.253L480.937 0.000388493C745.796 0.000376186 960.469 228.914 960.469 511.253L480.937 511.253Z" fill="#3C3C3B"/>
<path d="M960.469 511.253L960.469 0.000388493C1225.33 0.000376186 1440 228.914 1440 511.253L960.469 511.253Z" fill="#99DCCD"/>
</g>
</svg>
