<svg width="519" height="420" viewBox="0 0 519 420" fill="none" xmlns="http://www.w3.org/2000/svg">
<g opacity="0.9" filter="url(#filter0_f_826_16573)">
<ellipse cx="257.544" cy="357.517" rx="213.828" ry="19.4832" fill="#E6F7F3"/>
</g>
<path d="M239.077 66.3479C241.769 60.9467 248.053 58.3847 253.754 60.3645L375.795 102.747C382.475 105.067 385.711 112.63 382.776 119.063L304.417 290.852C301.73 296.742 294.856 299.439 288.88 296.947L164.346 245.013C157.936 242.34 155.127 234.8 158.224 228.585L239.077 66.3479Z" fill="#00A783"/>
<path d="M243.427 82.1865C246.106 76.7744 252.39 74.1964 258.098 76.1674L358.839 110.953C365.523 113.261 368.772 120.82 365.847 127.259L298.149 276.267C295.468 282.169 288.583 284.874 282.601 282.377L168.009 234.537L243.427 82.1865Z" fill="#00795F"/>
<path d="M248.113 72.7197L371.301 115.256C371.301 115.256 333.529 213.341 290.178 236.721C246.828 260.101 168.009 234.537 168.009 234.537L248.113 72.7197Z" fill="#F2FBF9"/>
<rect x="197.365" y="249.698" width="14.126" height="20.7897" transform="rotate(28.7878 197.365 249.698)" fill="#00CB9F"/>
<rect x="198.395" y="249.63" width="0.871353" height="20.7897" transform="rotate(28.7878 198.395 249.63)" fill="#B3E5DA"/>
<rect x="184.439" y="262.157" width="25.3581" height="78.3462" rx="3" transform="rotate(28.7878 184.439 262.157)" fill="#00A783"/>
<rect x="186.786" y="263.445" width="1.99648" height="78.3462" transform="rotate(28.7878 186.786 263.445)" fill="#99DCCD"/>
<path d="M203.812 272.802L204.034 272.924C205.486 273.722 206.016 275.546 205.218 276.998L170.379 340.403C169.581 341.855 167.757 342.386 166.305 341.588L166.083 341.466L203.812 272.802Z" fill="#00795F"/>
<rect x="207.182" y="255.093" width="2.92399" height="20.7897" transform="rotate(28.7878 207.182 255.093)" fill="#00A783"/>
<path fill-rule="evenodd" clip-rule="evenodd" d="M233.247 246.817C255.424 242.369 269.797 220.785 265.349 198.607C263.536 189.566 258.875 181.822 252.486 176.122C263.709 181.492 272.356 191.89 274.991 205.027C279.439 227.205 265.066 248.789 242.889 253.238C229.752 255.872 216.823 251.903 207.541 243.62C215.264 247.316 224.206 248.63 233.247 246.817ZM207.541 243.62C196.319 238.25 187.671 227.852 185.036 214.715C180.588 192.537 194.961 170.953 217.139 166.505C230.276 163.87 243.204 167.839 252.486 176.122C244.764 172.426 235.821 171.112 226.781 172.925C204.603 177.373 190.23 198.958 194.679 221.135C196.492 230.176 201.153 237.92 207.541 243.62Z" fill="white"/>
<circle cx="225.797" cy="209.673" r="43.956" transform="rotate(-11.3411 225.797 209.673)" stroke="#00A783" stroke-width="6"/>
<circle cx="225.193" cy="206.661" r="47.956" transform="rotate(-11.3411 225.193 206.661)" stroke="#99DCCD" stroke-width="14"/>
<path d="M216.152 198.031L233.73 212.781" stroke="white" stroke-width="11" stroke-linecap="round"/>
<path d="M230.604 186.779L241.352 196.11" stroke="white" stroke-width="11" stroke-linecap="round"/>
<path d="M146.49 81.8295C104.016 93.1297 53.1326 82.3165 33 75.4974C67.0956 50.6563 86.0917 36.531 108.01 0C161.784 23.3798 213.544 26.3023 232.703 24.8411C221.662 39.1288 188.963 70.5292 146.49 81.8295Z" fill="#E6F7F3"/>
<path d="M146.57 83.5005C119.014 90.8612 86.5787 86.7002 71.9663 84.2648C92.9108 80.8552 110.351 73.9645 124.571 50.1692C159.458 65.3982 184.969 59.9108 206.887 50.1692C199.725 59.4758 174.126 76.1398 146.57 83.5005Z" fill="#B3E5DA"/>
<path d="M455.786 138.331C450.72 163.269 427.697 192.884 416.819 204.574C449.454 205.548 459.178 202.486 479.653 188.013C507.903 168.043 513.261 147.098 518.619 135.408C510.826 138.818 476.243 140.766 455.786 138.331Z" fill="#F2FBF9"/>
<path d="M466.989 167.555C464.468 179.82 446.586 198.338 441.173 204.086C455.786 203.599 474.202 193.376 478.679 190.448C488.907 183.758 504.263 165.998 506.929 160.249C503.051 161.926 477.168 168.753 466.989 167.555Z" fill="#B3E5DA"/>
<path d="M280.148 74.5067C281.952 71.15 285.872 69.5312 289.519 70.6379L335.61 84.6262C340.383 86.0747 342.681 91.49 340.406 95.9292L335.83 104.862C334.068 108.3 330.102 109.989 326.403 108.875L280.069 94.9229C275.226 93.4643 272.935 87.9324 275.329 83.4762L280.148 74.5067Z" fill="#00795F"/>
<path d="M279.235 72.6422C281.038 69.2855 284.959 67.6667 288.605 68.7734L334.696 82.7617C339.469 84.2102 341.767 89.6255 339.493 94.0647L334.916 102.998C333.155 106.436 329.188 108.124 325.489 107.01L279.156 93.0584C274.312 91.5998 272.021 86.0679 274.415 81.6117L279.235 72.6422Z" fill="#B3E5DA"/>
<defs>
<filter id="filter0_f_826_16573" x="0.71582" y="295.034" width="513.656" height="124.966" filterUnits="userSpaceOnUse" color-interpolation-filters="sRGB">
<feFlood flood-opacity="0" result="BackgroundImageFix"/>
<feBlend mode="normal" in="SourceGraphic" in2="BackgroundImageFix" result="shape"/>
<feGaussianBlur stdDeviation="21.5" result="effect1_foregroundBlur_826_16573"/>
</filter>
</defs>
</svg>
